<svg width="1024" height="1024" xmlns="http://www.w3.org/2000/svg" p-id="10187" version="1.1" class="icon" t="1734054558429">
 <g>
  <title>Layer 1</title>
  <rect fill="#aad4ff" stroke-width="0" x="71.99998" y="1.99998" width="951.00005" height="950.99999" id="svg_6" stroke="null"/>
  <path id="svg_1" fill="#1296db" p-id="10188" d="m1023.99995,473.46591l-0.80273,0l-128.37728,-141.08227l127.93132,-144.21888l0,-58.58279l-19.29524,-21.17214l-243.73249,0l-19.62228,19.7672l0,34.14335l-72.42405,-79.59157l0,-0.88217l-0.44596,0.45742l-0.41623,-0.45742l0,0.88217l-38.35264,42.18092l-15.99513,-17.61078l-241.50268,0l-18.96821,22.60976l0,61.58871l18.31413,20.12661l21.40612,0l0,173.49394l-80.45135,88.38062l-0.80273,0l0.41623,0.42475l-0.41623,0.45742l0.80273,0l80.45135,88.41329l0,211.29667l26.96577,17.088l69.03475,0l55.20996,-62.2095l123.8582,136.11595l0,0.91485l0.44596,-0.45742l0.41623,0.45742l0,-0.91485l74.62412,-81.9767l14.4194,0c3.30011,0 6.27318,-2.28712 7.43268,-5.84848l4.34069,-13.91872a7.78945,8.56034 0 0 0 -1.10004,-7.80886l43.46632,-47.76801l-18.19521,64.10454a7.87864,8.65836 0 0 0 7.58134,11.23954l54.22885,0a7.90837,8.69103 0 0 0 7.22457,-5.32571l4.90557,-12.87319a8.0273,8.82173 0 0 0 -7.34349,-11.92566l-2.2298,0l24.97381,-86.38757l36.62825,0l-30.20642,105.23992a7.90837,8.69103 0 0 0 7.58134,11.23953l59.52092,0c3.27038,0 6.15426,-2.15642 7.37322,-5.55442l4.87585,-13.98407a7.90837,8.69103 0 0 0 -7.40295,-11.69695l-4.31095,0l33.62545,-120.00814a7.81918,8.59301 0 0 0 -1.1595,-7.84153l-11.14902,-16.46722l-0.08919,-0.16336a7.9381,8.72371 0 0 0 -6.21372,-3.33265l-42.69332,0a7.90837,8.69103 0 0 0 -5.64883,2.64652l-11.89229,14.34347l-18.55197,0l-1.24869,-1.50295l132.15308,-145.23175l0.83246,0l-0.41623,-0.3594l0.41623,-0.45742l-0.00002,-0.00002l-0.00003,0zm-421.04654,299.0565l46.94481,-147.32282l-14.89509,0l8.83003,-9.93261l49.32328,0l-46.46913,148.82578l18.52225,0l-2.34873,8.42965l-59.90741,0l-0.00001,0zm109.85503,-245.5707l4.45961,4.93363l-7.99757,30.12455l-6.68941,7.38411l-28.80908,0l-5.38126,-5.91383l9.24626,-28.45823l8.56245,-8.07025l26.609,0l0,0.00002zm-236.15115,235.44205l-50.92874,0l-7.78945,-4.90096l0,-574.65373l-36.74718,0l-2.97307,-3.26731l0,-38.42352l4.2515,-5.03165l219.14518,0l6.33264,6.99204l0,36.20175l-4.22176,5.65244l-32.07945,0l0,283.86352l261.8385,-283.86352l-62.0183,0l-5.20287,-6.14253l0,-37.99877l3.59741,-3.62671l222.68314,0l3.92446,4.34552l0,34.96017l-300.13168,338.26416l-11.08956,0c-0.44596,-0.03267 -0.83246,0 -1.24869,0.03268l-0.59462,0.09802a7.70026,8.46232 0 0 0 -3.53796,1.96038l-10.19763,9.63855l-0.11892,0.09802a8.11649,8.91974 0 0 0 -2.17034,3.62671l-8.8003,27.11863l-181.92231,205.05611l0.00001,0l-0.00001,0zm439.06336,-129.12393l14.09236,-16.95732l39.66078,0l9.18679,13.55932l-37.60936,134.18825l14.65725,0l-2.37847,6.82867l-53.00988,0l33.41733,-116.44678l-59.90741,0l-32.01999,110.79434l12.60582,0l-2.17033,5.68511l-47.71782,0l32.91192,-115.92401l-62.3156,0l-31.57403,109.09534l12.9626,0l-2.14061,6.82867l-49.38273,0l45.01231,-145.72183l-17.42221,0l2.7055,-8.8544l49.0557,0l15.43025,17.54543l26.93604,0l14.59779,-18.10087l31.5443,0l14.53833,17.48008l28.33338,0l-0.00001,0z" stroke="null"/>
  <path fill="none" stroke="null" id="svg_2" d="m88.99998,656.99994c7,1 12.95332,2.49902 21,3c15.96908,0.9942 28,0 35,0c3,0 3,-1 4,-1c1,0 2.34619,-0.70544 4,-3c1.30745,-1.81396 3.14429,-2.93414 4,-5c1.21014,-2.92157 2.49623,-4.90778 3,-9c0.36655,-2.97754 0.49345,-5.87854 1,-9c0.48055,-2.96124 0.68925,-6.08026 0,-9c-0.51375,-2.17627 -3.25577,-4.60083 -5,-6c-3.2162,-2.57996 -8,-2 -11,-2c-3,0 -8.96402,0.20911 -20,2c-6.97976,1.13263 -26.95327,4.07196 -30,6c-4.92722,3.1181 -10.73124,5.58704 -15,14c-4.87344,9.60468 -6.99708,20.88538 -8,34c-0.91501,11.96509 3.41102,27.96252 13,42c10.40071,15.22583 23.9607,25.47009 39,35c13.22151,8.37805 30,12 50,15l10,0"/>
  <text fill="#ff0000" x="111.61396" y="663.04487" id="svg_3" stroke-width="0" font-size="24" font-family="'Texturina'" text-anchor="start" xml:space="preserve" stroke="null" transform="matrix(11.3794 0 0 14.5436 -1205.66 -8867.41)" font-style="italic">e</text>
  <text fill="#00ff00" x="110.99881" y="663.04487" id="svg_7" stroke-width="0" font-size="24" font-family="'Texturina'" text-anchor="start" xml:space="preserve" stroke="null" transform="matrix(11.3794 0 0 14.5436 -1064.66 -8867.41)" font-style="italic">n</text>
 </g>

</svg>